:SAMPLES-PER-SECOND 30
:FULLY-SPECIFIED
:DEGREES
113
root  -50.7287 38.6631 -3.45102 167.684 -80.583 -174.34
RightUpLeg  14.678 -2.02187 -6.21358
RightLeg  34.2927 2.42782 1.51081
RightFoot  -12.3732 0.026356 12.4017
RightToes  5.82063e-011 0 -3.6325e-017
Spine  -1.14026 2.81386 7.79668
Spine1  13.8185 4.46256 -5.48728
HEad  -8.57199 4.77889 -6.16464
LeftShoulder1  8.42554 -11.4032 -49.3337
LeftArm  -9.82636 29.9002 -29.6698
LeftForeArm  27.2997 -7.92184 -5.15648
LeftHand  -0.244104 0.0205437 5.32207
RightShoulder  6.67045 9.66515 44.2048
RightArm  12.4817 3.81501 32.9249
RightForeArm  -1.48615 26.4102 5.97992
RightHand  -1.27975 3.21031 -17.4009
LeftUpLeg  -22.1467 12.8402 -0.0454996
LeftLeg  12.1947 8.50165 -0.00128264
LeftFoot  13.7086 -1.42581 6.08368
LeftToes  3.81955e-011 1.3492e-010 1.36421e-011
114
root  -52.0181 38.7882 -3.26241 176.556 -81.6492 177.065
RightUpLeg  9.30723 -0.801405 -7.52752
RightLeg  44.1337 0.656446 0.35254
RightFoot  -1.46861 -1.09692 12.8265
RightToes  5.82063e-011 0 -3.6325e-017
Spine  0.17331 2.42294 5.16049
Spine1  11.4741 3.85526 -4.81857
HEad  -9.16087 4.19652 -6.35215
LeftShoulder1  8.48464 -11.659 -48.844
LeftArm  -11.03 28.0027 -29.0084
LeftForeArm  26.1189 -9.61459 -4.73352
LeftHand  -0.244104 0.0205437 5.32207
RightShoulder  6.98628 10.1298 44.7435
RightArm  9.1907 1.46309 33.3907
RightForeArm  -0.766904 16.5868 6.49267
RightHand  -1.35906 3.76273 -17.3779
LeftUpLeg  -22.3932 15.4543 -3.55872
LeftLeg  14.9577 4.62719 0.731213
LeftFoot  11.8123 -1.66025 7.73892
LeftToes  3.81955e-011 1.3492e-010 1.36421e-011
115
root  -53.0554 38.9891 -3.10174 -176.219 -81.5366 169.809
RightUpLeg  2.78159 0.670791 -8.1562
RightLeg  53.5766 -1.08567 -1.998
RightFoot  7.25857 -1.71414 10.735
RightToes  5.82063e-011 0 -3.6325e-017
Spine  2.27612 2.29566 3.20123
Spine1  9.62159 3.5853 -4.59067
HEad  -10.4048 3.95789 -6.98686
LeftShoulder1  8.56355 -11.9746 -48.2908
LeftArm  -12.1304 26.0738 -28.6604
LeftForeArm  24.1771 -13.6736 -4.12157
LeftHand  -0.244104 0.0205437 5.32207
RightShoulder  7.43451 10.8402 45.2783
RightArm  -1.62063 -0.221881 33.0003
RightForeArm  8.42802 6.38335 8.7391
RightHand  -1.1349 2.80616 -16.1736
LeftUpLeg  -21.0178 16.6781 -4.97487
LeftLeg  15.867 3.62897 0.527394
LeftFoot  9.13827 -1.52948 8.13408
LeftToes  3.81955e-011 1.3492e-010 1.36421e-011
116
root  -53.9991 39.3418 -2.95364 -174.842 -81.0988 168.15
RightUpLeg  -3.00683 1.21915 -8.0022
RightLeg  60.0632 -2.43363 -5.03415
RightFoot  9.29662 -1.47337 8.37811
RightToes  5.82063e-011 0 -3.6325e-017
Spine  4.15468 2.17252 2.15833
Spine1  8.71528 3.31161 -4.16807
HEad  -11.997 4.03452 -7.64178
LeftShoulder1  8.62626 -12.1648 -48.0529
LeftArm  -12.9074 23.782 -28.027
LeftForeArm  22.3036 -19.2885 -3.64804
LeftHand  -0.244104 0.0205437 5.32207
RightShoulder  7.76095 11.3329 45.7137
RightArm  -3.05475 -1.77409 32.6241
RightForeArm  12.5875 0.699674 7.85177
RightHand  -0.795996 1.04831 -14.4565
LeftUpLeg  -18.3304 16.705 -4.49035
LeftLeg  14.8834 4.32425 -0.389773
LeftFoot  8.14214 -1.40787 7.89791
LeftToes  3.81955e-011 1.3492e-010 1.36421e-011
117
root  -54.9163 39.7725 -2.77529 -178.553 -81.5375 171.792
RightUpLeg  -7.66735 0.0765522 -7.14611
RightLeg  62.5786 -2.9838 -6.76773
RightFoot  6.84305 -1.0854 7.08109
RightToes  5.82063e-011 0 -3.6325e-017
Spine  5.17532 1.59316 2.32813
Spine1  8.39474 2.63072 -3.45737
HEad  -13.4717 4.21388 -7.80845
LeftShoulder1  8.61841 -12.2047 -47.8856
LeftArm  -14.7228 21.072 -26.951
LeftForeArm  23.0799 -25.4861 -4.16991
LeftHand  -0.244104 0.0205437 5.32207
RightShoulder  7.76301 11.33 45.7337
RightArm  -2.75083 -3.94744 32.2873
RightForeArm  18.0489 -0.210976 7.40831
RightHand  -0.652634 0.224828 -13.5622
LeftUpLeg  -15.5104 15.6882 -3.1832
LeftLeg  13.0618 5.22561 -1.46506
LeftFoot  7.91924 -1.34842 7.64908
LeftToes  3.81955e-011 1.3492e-010 1.36421e-011
118
root  -55.7402 40.1022 -2.59088 177.12 -82.5067 176.392
RightUpLeg  -11.6514 -1.69519 -6.35685
RightLeg  61.4923 -2.92347 -6.3756
RightFoot  4.17895 -0.949208 7.1717
RightToes  5.82063e-011 0 -3.6325e-017
Spine  5.8298 0.820376 2.52866
Spine1  8.07113 1.67294 -2.74944
HEad  -14.5398 4.43319 -7.51025
LeftShoulder1  8.59379 -12.1994 -47.7631
LeftArm  -17.0993 18.6228 -25.6427
LeftForeArm  25.7142 -32.2614 -5.6518
LeftHand  -0.244104 0.0205437 5.32207
RightShoulder  7.5092 11.0143 45.1801
RightArm  -1.13346 -7.12162 31.9537
RightForeArm  19.8428 2.5432 7.70736
RightHand  -0.691973 0.531231 -13.6347
LeftUpLeg  -13.4266 13.9875 -2.16866
LeftLeg  11.5173 6.13903 -2.35378
LeftFoot  7.25019 -1.28373 7.56096
LeftToes  3.81955e-011 1.3492e-010 1.36421e-011
119
root  -56.5038 40.3671 -2.43741 173.685 -83.1563 -179.874
RightUpLeg  -14.5481 -3.15724 -5.81213
RightLeg  56.9716 -3.22105 -5.75407
RightFoot  2.71184 -0.880196 7.27831
RightToes  5.82063e-011 0 -3.6325e-017
Spine  6.57363 0.294563 2.27013
Spine1  7.24359 0.874631 -1.96157
HEad  -15.0173 4.72243 -7.08714
LeftShoulder1  8.66034 -12.2688 -47.9243
LeftArm  -19.0238 17.0592 -24.1458
LeftForeArm  28.2935 -39.5169 -7.45051
LeftHand  -0.244104 0.0205437 5.32207
RightShoulder  7.2339 10.7316 44.3566
RightArm  1.57439 -10.9216 31.255
RightForeArm  16.3184 6.65333 8.5023
RightHand  -0.765262 1.04262 -13.9079
LeftUpLeg  -11.4289 11.1462 -1.16411
LeftLeg  9.78685 8.3801 -3.34938
LeftFoot  6.62598 -1.24772 7.62442
LeftToes  3.81955e-011 1.3492e-010 1.36421e-011
120
root  -57.2474 40.5995 -2.33746 170.972 -83.4559 -177.022
RightUpLeg  -15.7025 -4.5256 -5.40251
RightLeg  49.3839 -4.32776 -5.72237
RightFoot  0.845433 -0.730473 6.88004
RightToes  5.82063e-011 0 -3.6325e-017
Spine  7.11662 -0.0488054 1.66808
Spine1  6.59245 0.251687 -1.14451
HEad  -15.228 5.10639 -6.66193
LeftShoulder1  8.58282 -12.1653 -47.8059
LeftArm  -20.6048 15.7884 -22.8726
LeftForeArm  30.8995 -46.3518 -9.53065
LeftHand  -0.244104 0.0205437 5.32207
RightShoulder  7.05215 10.5387 43.8098
RightArm  5.6489 -14.1233 30.4286
RightForeArm  10.2182 10.56 8.78341
RightHand  -0.817182 1.35137 -14.181
LeftUpLeg  -9.50472 8.46394 -0.33765
LeftLeg  8.17628 10.7456 -4.23626
LeftFoot  6.26178 -1.24783 7.79972
LeftToes  3.81955e-011 1.3492e-010 1.36421e-011
121
root  -57.97 40.7418 -2.28503 168.363 -84.0791 -174.368
RightUpLeg  -15.2141 -6.15098 -5.20561
RightLeg  39.9782 -5.20163 -4.95781
RightFoot  -1.57868 -0.565032 6.48862
RightToes  5.82063e-011 0 -3.6325e-017
Spine  7.23018 -0.436837 0.827811
Spine1  6.37656 -0.456377 -0.137523
HEad  -15.2019 5.32116 -6.40809
LeftShoulder1  8.40828 -11.976 -47.4003
LeftArm  -21.621 14.3587 -21.8885
LeftForeArm  33.1406 -51.7299 -11.5891
LeftHand  -0.244104 0.0205437 5.32207
RightShoulder  6.87677 10.3512 43.2687
RightArm  8.90457 -16.4306 30.1075
RightForeArm  6.20408 13.3288 8.2081
RightHand  -0.876877 1.63343 -14.6092
LeftUpLeg  -8.25594 7.38244 -0.141684
LeftLeg  7.90925 11.2395 -4.46884
LeftFoot  5.36013 -1.2111 8.01506
LeftToes  3.81955e-011 1.3492e-010 1.36421e-011
122
root  -58.6729 40.7952 -2.26726 167.243 -85.2221 -173.246
RightUpLeg  -13.7526 -7.60568 -5.43009
RightLeg  30.5765 -4.52716 -3.1396
RightFoot  -3.29874 -0.485547 6.58659
RightToes  5.82063e-011 0 -3.6325e-017
Spine  7.09281 -0.793761 -0.37606
Spine1  6.13227 -1.21177 1.1843
HEad  -14.6335 5.10223 -6.43048
LeftShoulder1  8.38448 -11.9695 -47.2834
LeftArm  -22.0517 13.1161 -20.9306
LeftForeArm  34.4547 -55.2753 -13.2909
LeftHand  -0.244104 0.0205437 5.32207
RightShoulder  6.65679 10.1862 42.3352
RightArm  9.06262 -18.3185 30.3273
RightForeArm  5.76909 14.3838 7.68213
RightHand  -0.945969 1.98503 -15.0172
LeftUpLeg  -7.49347 6.99325 -0.554519
LeftLeg  8.63928 10.6107 -4.1862
LeftFoot  3.8723 -1.11207 8.1344
LeftToes  3.81955e-011 1.3492e-010 1.36421e-011
123
root  -59.3719 40.8174 -2.28427 171.602 -86.3223 -177.695
RightUpLeg  -11.7739 -8.54827 -6.02357
RightLeg  22.4329 -2.39299 -1.31762
RightFoot  -3.79097 -0.49122 7.02705
RightToes  5.82063e-011 0 -3.6325e-017
Spine  6.68326 -0.912047 -1.83766
Spine1  5.90034 -1.70051 2.45579
HEad  -13.4681 4.52452 -6.44902
LeftShoulder1  8.4318 -11.9966 -47.4715
LeftArm  -21.8264 12.2085 -19.7923
LeftForeArm  35.6612 -57.2637 -14.3619
LeftHand  -0.244104 0.0205437 5.32207
RightShoulder  6.49237 10.0823 41.5539
RightArm  6.77987 -19.8549 30.4586
RightForeArm  6.76089 14.0477 7.52325
RightHand  -0.99749 2.35689 -15.088
LeftUpLeg  -6.61921 6.2943 -1.24264
LeftLeg  9.29337 10.3531 -3.92309
LeftFoot  2.44451 -0.984233 8.00295
LeftToes  3.81955e-011 1.3492e-010 1.36421e-011
